<svg width="102" height="104" viewBox="0 0 102 104" fill="none" xmlns="http://www.w3.org/2000/svg">
<path d="M68 69.3333L51 52L34 69.3333" stroke="#3E3A50" stroke-width="2" stroke-linecap="round" stroke-linejoin="round"/>
<path d="M51 52V91" stroke="#3E3A50" stroke-width="2" stroke-linecap="round" stroke-linejoin="round"/>
<path d="M86.6587 79.69C90.8039 77.3859 94.0785 73.7398 95.9656 69.3274C97.8528 64.9149 98.2451 59.9873 97.0806 55.3223C95.916 50.6573 93.261 46.5206 89.5345 43.5649C85.8081 40.6093 81.2223 39.0032 76.5012 39H71.1462C69.8598 33.9267 67.4621 29.2168 64.1335 25.2243C60.8048 21.2318 56.6318 18.0607 51.9281 15.9493C47.2244 13.8379 42.1125 12.8412 36.9767 13.0342C31.8408 13.2271 26.8147 14.6046 22.2762 17.0632C17.7376 19.5218 13.8048 22.9974 10.7733 27.2289C7.74184 31.4603 5.69061 36.3373 4.77384 41.4934C3.85707 46.6494 4.09862 51.9503 5.48033 56.9975C6.86204 62.0446 9.34795 66.7068 12.7512 70.6333" stroke="#3E3A50" stroke-width="2" stroke-linecap="round" stroke-linejoin="round"/>
<path d="M68 69.3333L51 52L34 69.3333" stroke="#3E3A50" stroke-width="2" stroke-linecap="round" stroke-linejoin="round"/>
</svg>
